<svg id="Layer_1" data-name="Layer 1" xmlns="http://www.w3.org/2000/svg" viewBox="0 0 570.8 145.31"><defs><style>.cls-1{fill:#fff;}</style></defs><path class="cls-1" d="M129.39,28.61h41.22V171.39H142.38V103.81q0-4.78.15-11t1.32-33.2H143L106.15,171.39H78.42L44,59.38h-.88Q45,93.55,45,105v66.41H18V28.61H59.18L93,137.79h.58Zm163.19,87.21q0,16.61-6.69,24.37T264.36,148q-15.35,0-22-7.72T235.74,116V28.61H205.57v92q0,24.51,15.23,38.62t42.77,14.11q18.27,0,31.64-6.35a46.08,46.08,0,0,0,20.46-18.26q7.08-11.91,7.08-27.73V28.61H292.58ZM427.15,28l50.58,143.36H445.12l-10.35-34H382.71l-10.35,34H339.75L390.14,28Zm.39,84q-14.35-46.19-16.16-52.24t-2.59-9.57Q405.56,62.7,390.33,112Zm91,34.38,68.36-98.25V28.61H484.38v25H551l-68.46,98.15v19.63H588.77v-25Z" transform="translate(-17.97 -28.03)"/><script src="../Scripts/pathseg.js"></script></svg>