<?xml version="1.0" encoding="utf-8"?>
<!-- Generator: Adobe Illustrator 25.1.0, SVG Export Plug-In . SVG Version: 6.00 Build 0)  -->
<svg version="1.1" id="Layer_1" xmlns="http://www.w3.org/2000/svg" xmlns:xlink="http://www.w3.org/1999/xlink" x="0px" y="0px"
	 viewBox="0 0 200 200" style="enable-background:new 0 0 200 200;" xml:space="preserve">
<style type="text/css">
	.st0{fill:none;}
	.st1{fill:#293138;}
</style>
<g>
	<rect x="0" class="st0" width="200" height="200"/>
	<path class="st1" d="M175.3,40.8L112.2,3.3c-3.8-2.2-8-3.3-12.2-3.3c-4.2,0-8.4,1.1-12.2,3.4L24.7,40.8
		c-7.5,4.5-12.2,12.7-12.2,21.7v75c0,9,4.6,17.2,12.2,21.7l63.1,37.5c3.8,2.2,8,3.3,12.2,3.3c4.2,0,8.4-1.1,12.2-3.3l63.1-37.5
		c7.5-4.5,12.2-12.7,12.2-21.7v-75C187.5,53.6,182.8,45.3,175.3,40.8z M126.4,157.9l0.1,5.4c0,0.7-0.4,1.4-0.9,1.7l-3.2,1.8
		c-0.5,0.3-0.9-0.1-0.9-0.7l-0.1-5.3c-2.7,1.1-5.5,1.4-7.3,0.7c-0.3-0.1-0.5-0.6-0.4-1.2l1.2-4.9c0.1-0.4,0.3-0.8,0.6-1
		c0.1-0.1,0.2-0.2,0.3-0.2c0.2-0.1,0.4-0.1,0.5-0.1c1.9,0.6,4.3,0.3,6.7-0.8c3-1.5,5-4.6,4.9-7.6c0-2.7-1.5-3.9-5.1-3.9
		c-4.6,0-8.9-0.9-8.9-7.6c-0.1-5.6,2.8-11.3,7.4-15l-0.1-5.4c0-0.7,0.4-1.4,0.9-1.7l3.1-2c0.5-0.3,0.9,0.1,0.9,0.7l0.1,5.4
		c2.3-0.9,4.3-1.2,6-0.7c0.4,0.1,0.6,0.6,0.4,1.3l-1.2,4.8c-0.1,0.4-0.3,0.7-0.6,1c-0.1,0.1-0.2,0.2-0.3,0.2
		c-0.2,0.1-0.3,0.1-0.5,0.1c-0.8-0.2-2.8-0.6-5.8,0.9c-3.2,1.6-4.3,4.4-4.3,6.5c0,2.5,1.3,3.2,5.7,3.3c5.8,0.1,8.3,2.6,8.4,8.5
		C134.2,147.9,131.1,154.1,126.4,157.9z M159.5,148.8c0,0.5-0.1,1-0.5,1.2l-16,9.7c-0.4,0.3-0.8,0-0.8-0.5v-4.1c0-0.5,0.3-0.8,0.7-1
		l15.7-9.4c0.4-0.2,0.8,0,0.8,0.5V148.8z M170.5,56.6l-59.7,36.9c-7.4,4.4-12.9,9.2-13,18.2v73.6c0,5.4,2.2,8.9,5.5,9.9
		c-1.1,0.2-2.2,0.3-3.3,0.3c-3.5,0-6.9-1-10-2.7l-63.1-37.5c-6.2-3.7-10-10.5-10-17.9v-75c0-7.3,3.8-14.2,10-17.9L90,7.2
		c3-1.8,6.5-2.7,10-2.7s6.9,1,10,2.7l63.1,37.5c5.2,3.1,8.7,8.4,9.7,14.4C180.7,54.6,176,53.4,170.5,56.6z"/>
</g>
</svg>
