<?xml version="1.0" encoding="utf-8"?>
<!-- Generator: Adobe Illustrator 25.1.0, SVG Export Plug-In . SVG Version: 6.00 Build 0)  -->
<svg version="1.1" id="Layer_1" xmlns="http://www.w3.org/2000/svg" xmlns:xlink="http://www.w3.org/1999/xlink" x="0px" y="0px"
	 viewBox="0 0 128 128" style="enable-background:new 0 0 128 128;" xml:space="preserve">
<style type="text/css">
	.st0{fill:#ffffff;}
</style>
<path class="st0" d="M120.8,33.8l0.3-0.2c-0.6-1.1-1.5-2.1-2.5-2.6L69.4,2.6c-0.8-0.5-2-0.7-3.2-0.7s-2.3,0.3-3.2,0.7L14.1,31
	c-1.7,1-3,3.6-3,5.5v56.8c0,1.1,0.2,2.3,0.9,3.5l-0.2,0.1c0.5,0.8,1.2,1.5,2,2L63,127.3c0.8,0.5,2,0.7,3.2,0.7s2.3-0.3,3.2-0.7
	l48.9-28.4c1.7-1,3-3.6,3-5.5V36.4C121.3,35.6,121.2,34.7,120.8,33.8z M84.6,67v-4.1h5.1v-5.1h5.1v5.1h5.1V67h-5.1v5.1h-5.1V67H84.6
	z M88,52.6C83.7,45,75.5,39.9,66.3,39.9c-13.7,0-25,11.2-25,25s11.2,25,25,25c9.3,0,17.4-5.1,21.7-12.6l13.2,7.8
	c-6.9,12-20,20.2-34.9,20.2c-22.2,0-40.3-18-40.3-40.3s18-40.3,40.3-40.3c15,0,28.1,8.3,35,20.4L88,52.6z M118.2,67h-5.1v5.1h-4V67
	H103v-4.1h6.1v-5.1h4.1v5.1h5.1L118.2,67L118.2,67z"/>
</svg>
