<?xml version="1.0" encoding="utf-8"?>
<!-- Generator: Adobe Illustrator 25.1.0, SVG Export Plug-In . SVG Version: 6.00 Build 0)  -->
<svg version="1.1" id="Layer_1" xmlns="http://www.w3.org/2000/svg" xmlns:xlink="http://www.w3.org/1999/xlink" x="0px" y="0px"
	 viewBox="0 0 90.1 58.1" style="enable-background:new 0 0 90.1 58.1;" xml:space="preserve" fill="#ffffff" stroke="black">
<path class="st0" d="M59.9,26.2c2.4-0.7,4.7-1.2,6.8-1.6c-0.1-3.9-0.6-7-1-8.9c-1.5,0.6-4,1.6-6.8,3.1c0.5,1.8,0.8,3.7,0.9,5.6
	C59.9,25.1,60,25.6,59.9,26.2z"/>
<path class="st0" d="M69,41.1c2.3-4.6,3.6-9.2,4.2-12.3c-8.5,0.4-26.7-1.5-33,23.2c-0.4,1.7-1.2,4-1.8,5.8
	C40.3,57.5,59,61.2,69,41.1z"/>
<path class="st0" d="M42.5,37.3c3.3-4,7.6-7.1,12.9-9.4c0.4-0.2,0.8-0.4,1.3-0.5c0.1-0.9,0.1-1.8,0-2.6C56,13,46.8,3.1,43.6,0
	c-2,2-6.5,6.9-9.6,13.3c-2.4,5-3.5,9.9-3.2,14.6C35.7,30.2,39.6,33.4,42.5,37.3z"/>
<path class="st0" d="M72.8,40.6c-0.3,0.7-0.6,1.3-0.9,2c-3.7,7.2-8.7,12.3-15,15.1c18,2.1,33.2-9.1,33.2-9.1S82.9,43.3,72.8,40.6z"
	/>
<path class="st0" d="M15,41.8c-0.1-0.1-0.1-0.3-0.2-0.4C5.8,44.3,6.3,44,0,48.7c0,0,14.7,10.8,32.3,9.2C25,55.1,19.2,49.7,15,41.8z"
	/>
<path class="st0" d="M13.5,28.2c0.7,3,2,7.5,4.4,12.1c4.2,8,10.2,13.1,17.8,15.3c0.2-0.5,1.2-8.6,4.9-14.9
	C34.6,29.8,20.1,28.3,13.5,28.2z"/>
<path class="st0" d="M28.5,19.1c-3-1.7-5.6-2.7-7.2-3.3c-0.4,1.8-0.9,4.9-1,8.6c2.3,0.5,4.8,1.1,7.2,2.1
	C27.6,24,27.9,21.6,28.5,19.1z"/>
</svg>
